<svg xmlns="http://www.w3.org/2000/svg" width="14" height="15" viewBox="0 0 14 15" fill="none">
  <path d="M0.26363 0.76702C0.615103 0.415549 1.18495 0.415551 1.53642 0.767023L7.00001 6.23064L12.4636 0.767045C12.8151 0.415574 13.385 0.415575 13.7364 0.767048C14.0879 1.11852 14.0879 1.68837 13.7364 2.03984L8.2728 7.50344L13.7364 12.9671C14.0879 13.3185 14.0879 13.8884 13.7364 14.2399C13.3849 14.5913 12.8151 14.5913 12.4636 14.2398L7.00001 8.77623L1.53639 14.2398C1.18492 14.5913 0.615074 14.5913 0.263603 14.2398C-0.0878685 13.8883 -0.0878674 13.3185 0.263605 12.967L5.72722 7.50343L0.263627 2.03981C-0.0878443 1.68834 -0.0878428 1.11849 0.26363 0.76702Z" fill="white" />
</svg>